<?xml version="1.0" encoding="UTF-8"?>
<svg xmlns="http://www.w3.org/2000/svg" xmlns:xlink="http://www.w3.org/1999/xlink" width="50px" height="50px" viewBox="0 0 50 50" version="1.1">
<g id="surface1">
<path style="fill-rule:nonzero;fill:rgb(100%,100%,100%);fill-opacity:1;stroke-width:254000;stroke-linecap:butt;stroke-linejoin:round;stroke:rgb(57.254902%,0%,10.196078%);stroke-opacity:1;stroke-miterlimit:10;" d="M 106.9136 812785.770549 C 106.9136 363794.388926 363949.260662 -47.958137 812679.448927 -47.958137 C 1261670.83055 -47.958137 1625513.177613 363794.388926 1625513.177613 812785.770549 C 1625513.177613 1261777.152171 1261670.83055 1625619.499234 812679.448927 1625619.499234 C 363949.260662 1625619.499234 106.9136 1261777.152171 106.9136 812785.770549 Z M 106.9136 812785.770549 " transform="matrix(0.0000149554,0,0,0.0000149554,3.22887,18.043686)"/>
<path style="fill-rule:nonzero;fill:rgb(100%,100%,100%);fill-opacity:1;stroke-width:254000;stroke-linecap:butt;stroke-linejoin:round;stroke:rgb(57.254902%,0%,10.196078%);stroke-opacity:1;stroke-miterlimit:10;" d="M 20.619958 450738.022294 C 20.619958 201820.752552 201923.085342 -81.712831 450840.355083 -81.712831 C 699757.624825 -81.712831 901660.090209 201820.752552 901660.090209 450738.022294 C 901660.090209 699916.485394 699757.624825 901818.950777 450840.355083 901818.950777 C 201923.085342 901818.950777 20.619958 699916.485394 20.619958 450738.022294 Z M 20.619958 450738.022294 " transform="matrix(0.0000149554,0,0,0.0000149554,19.183285,5.887941)"/>
<path style="fill-rule:nonzero;fill:rgb(100%,100%,100%);fill-opacity:1;stroke-width:254000;stroke-linecap:butt;stroke-linejoin:round;stroke:rgb(57.254902%,0%,10.196078%);stroke-opacity:1;stroke-miterlimit:10;" d="M 110.179484 628644.453478 C 110.179484 281518.481299 278542.298629 -47.958137 622272.75716 -47.958137 C 966003.215692 -47.958137 1244696.528194 281518.481299 1244696.528194 628644.453478 C 1244696.528194 975770.425658 966003.215692 1257336.865093 622272.75716 1257336.865093 C 278542.298629 1257336.865093 110.179484 975770.425658 110.179484 628644.453478 Z M 110.179484 628644.453478 " transform="matrix(0.0000149554,0,0,0.0000149554,27.920227,18.043686)"/>
<path style="fill:none;stroke-width:254000;stroke-linecap:butt;stroke-linejoin:round;stroke:rgb(57.254902%,0%,10.196078%);stroke-opacity:1;stroke-miterlimit:10;" d="M 33.277969 118.979632 L 267756.469454 213775.146105 " transform="matrix(0.0000149554,0,0,0.0000149554,23.74169,19.373221)"/>
</g>
</svg>
